<?xml version="1.0" standalone="no"?>
<!DOCTYPE svg PUBLIC "-//W3C//DTD SVG 20010904//EN"
 "http://www.w3.org/TR/2001/REC-SVG-20010904/DTD/svg10.dtd">
<svg version="1.0" xmlns="http://www.w3.org/2000/svg"
 width="24.000000pt" height="24.000000pt" viewBox="0 0 24.000000 24.000000"
 preserveAspectRatio="xMidYMid meet">

<g transform="translate(0.000000,24.000000) scale(0.100000,-0.100000)"
fill="#000000" stroke="none">
<path d="M92 208 c-7 -7 -12 -22 -12 -35 0 -13 -4 -23 -10 -23 -5 0 -10 7 -10
16 0 9 -6 14 -12 12 -7 -3 -13 -16 -13 -29 0 -17 6 -25 21 -27 23 -3 34 -27
34 -74 0 -24 4 -28 30 -28 27 0 30 3 30 29 0 25 4 30 28 33 21 2 28 9 30 31 2
19 -1 27 -12 27 -9 0 -16 -7 -16 -15 0 -8 -4 -15 -10 -15 -5 0 -10 19 -10 43
0 45 -13 67 -40 67 -9 0 -21 -5 -28 -12z"/>
</g>
</svg>
